<svg xmlns="http://www.w3.org/2000/svg" viewBox="0 0 32 32" fill="#fff">
  <path d="M19.11 17.26c-.27-.13-1.58-.78-1.83-.87-.25-.09-.43-.13-.62.13-.18.27-.71.87-.87 1.04-.16.18-.32.2-.59.07-.27-.13-1.13-.42-2.15-1.34-.79-.7-1.32-1.56-1.48-1.83-.16-.27-.02-.42.12-.55.12-.12.27-.32.4-.49.13-.16.18-.27.27-.45.09-.18.04-.33-.02-.46-.07-.13-.62-1.49-.84-2.05-.22-.53-.45-.46-.62-.46-.16 0-.33 0-.5 0-.18 0-.46.07-.7.33-.25.27-.98.96-.98 2.34s1 2.71 1.14 2.9c.13.18 1.97 3 4.78 4.2.67.29 1.19.46 1.6.59.67.21 1.28.18 1.77.11.54-.08 1.58-.64 1.8-1.27.22-.62.22-1.15.15-1.27-.07-.11-.25-.18-.52-.31z"/>
  <path d="M27.58 4.42C24.92 1.75 21.54.29 18 .29 9.73.29 3 7.02 3 15.29c0 2.69.71 5.28 2.06 7.58L3 31l8.35-2.19c2.23 1.22 4.76 1.87 7.34 1.87 8.27 0 15-6.73 15-15 0-3.54-1.46-6.92-4.11-9.58zM18.69 28.1c-2.32 0-4.59-.62-6.57-1.81l-.47-.28-4.96 1.3 1.32-4.83-.3-.5c-1.23-2.02-1.88-4.34-1.88-6.69 0-7.13 5.8-12.93 12.93-12.93 3.45 0 6.69 1.34 9.13 3.77 2.43 2.44 3.77 5.68 3.77 9.12-.01 7.13-5.81 12.93-12.93 12.93z"/>
</svg>
